<svg width="32" height="32" viewBox="0 0 32 32" fill="none" xmlns="http://www.w3.org/2000/svg">
<path d="M7.55954 15.6019C8.59683 17.7226 10.3158 19.4338 12.4412 20.4614C12.5967 20.5351 12.7687 20.567 12.9403 20.554C13.1119 20.541 13.2771 20.4836 13.4198 20.3874L16.5492 18.3006C16.6877 18.2083 16.8469 18.152 17.0126 18.1368C17.1782 18.1215 17.3451 18.1479 17.498 18.2134L23.3526 20.7225C23.5515 20.807 23.7175 20.9538 23.8257 21.1409C23.9339 21.328 23.9783 21.5451 23.9524 21.7596C23.7673 23.2076 23.0608 24.5385 21.9652 25.5031C20.8695 26.4678 19.4598 26.9999 18 27C13.4913 27 9.1673 25.2089 5.97919 22.0208C2.79107 18.8327 1 14.5087 1 10C1.00008 8.54022 1.53224 7.13052 2.49685 6.03485C3.46146 4.93918 4.79237 4.23267 6.24037 4.04763C6.45489 4.02167 6.67204 4.06612 6.85909 4.1743C7.04614 4.28248 7.19298 4.44852 7.27746 4.6474L9.78877 10.5071C9.85373 10.6587 9.8802 10.824 9.86582 10.9883C9.85144 11.1525 9.79666 11.3107 9.70636 11.4487L7.62681 14.6261C7.53216 14.7691 7.47621 14.9341 7.46442 15.1051C7.45263 15.2762 7.4854 15.4473 7.55954 15.6019V15.6019Z" stroke="#C7B299" stroke-width="2" stroke-linecap="round" stroke-linejoin="round"/>
</svg>
